<svg xmlns="http://www.w3.org/2000/svg" xmlns:xlink="http://www.w3.org/1999/xlink" version="1.1" x="0px" y="0px" viewBox="0 0 100 78" enable-background="new 0 0 100 100" xml:space="preserve"><g><path fill="#F4D4BF" d="M22.683,58.874c-0.014-0.041-0.029-0.081-0.043-0.122v0.122H22.683z"/><path fill="#F4D4BF" d="M78.85,50c0-2.101-0.254-4.145-0.719-6.111H33.654c-6.073,0-11.014,4.941-11.014,11.013v3.851   c0.014,0.041,0.029,0.081,0.043,0.122H22.64h-2.869H8.669c0,7.823,6.342,14.165,14.165,14.165c2.952,0,5.692-0.905,7.961-2.45   c5.101,4.358,11.828,7.01,19.205,7.01s14.104-2.652,19.205-7.01c2.269,1.545,5.009,2.45,7.961,2.45   c7.823,0,14.165-6.342,14.165-14.165H77.317C78.306,56.088,78.85,53.106,78.85,50z M41.461,54.358c-0.06,1.483-2.369,1.489-2.308,0   c0.059-1.456-0.573-3.766-2.47-3.654c-2.025,0.119-1.89,2.521-1.814,4.001c0.076,1.488-2.233,1.481-2.308,0   c-0.052-1.02-0.053-2.03,0.18-2.988c-0.009,0.002-0.019,0.005-0.028,0.007c-1.416,0.268-1.952-3.827-1.301-2.602   c0.211,0.397,0.808,0.631,1.518,0.769c-0.933-0.758-1.219-3.437-0.676-2.414c0.415,0.781,2.412,0.962,3.806,0.991   c0.312-0.05,0.63-0.071,0.947-0.057c0.138,0.006,0.27,0.025,0.402,0.044c0.024-0.001,0.043-0.002,0.043-0.002   s-0.008,0.004-0.01,0.006C40.166,48.862,41.564,51.822,41.461,54.358z M56.983,65.251c-0.829,3.08-3.642,5.346-6.983,5.346   s-6.154-2.267-6.983-5.346c-0.255-0.947,0.439-1.885,1.42-1.885h11.127C56.545,63.366,57.238,64.304,56.983,65.251z M60.847,54.358   c0.06,1.489-2.248,1.483-2.308,0c-0.103-2.54,1.299-5.504,4.033-5.902c-0.002-0.001-0.008-0.004-0.008-0.004   s0.019,0.001,0.033,0.002c0.131-0.018,0.261-0.037,0.398-0.043c0.318-0.014,0.636,0.007,0.948,0.057   c1.395-0.028,3.402-0.208,3.818-0.992c0.543-1.022,0.257,1.656-0.676,2.414c0.71-0.138,1.307-0.372,1.518-0.769   c0.651-1.225,0.115,2.87-1.301,2.602c-0.014-0.003-0.029-0.007-0.043-0.01c0.234,0.959,0.233,1.97,0.181,2.991   c-0.076,1.481-2.385,1.488-2.308,0c0.076-1.48,0.21-3.881-1.814-4.001C61.42,50.593,60.788,52.903,60.847,54.358z"/><path fill="#F4D4BF" d="M33.654,41.02h43.844c7.387-2.957,12.608-10.176,12.608-18.619H50c-15.529,0-28.187,11.739-28.82,26.446   C23.435,44.222,28.171,41.02,33.654,41.02z"/></g></svg>